{"title":"Khoobsurat (2014) Hindi DvDScr x264 [DTRC] {GreatPalash}","uid":11058905,"size":738669227,"categoryP":"video","categoryS":"movies","magnet":"?xt=urn:btih:347e26f8e45c2b39f5a78faefad65a5515613548&amp;dn=Khoobsurat+%282014%29+Hindi+DvDScr+x264+%5BDTRC%5D+%7BGreatPalash%7D&amp;tr=udp%3A%2F%2Ftracker.openbittorrent.com%3A80&amp;tr=udp%3A%2F%2Fopen.demonii.com%3A1337&amp;tr=udp%3A%2F%2Ftracker.coppersurfer.tk%3A6969&amp;tr=udp%3A%2F%2Fexodus.desync.com%3A6969","seeders":1,"leechers":0,"uploader":"Palash995","files":-1,"time":1411150171,"description":"Khoobsurat (2014) Hindi Movie 1CD DvDScr x264 [DTRC] {GreatPalash}\n &lt;a href=&quot;\nhttp://imgchicken.com/images/82750689744645691116.gif&quot; rel=&quot;nofollow&quot; target=&quot;_NEW&quot;&gt;\nhttp://imgchicken.com/images/82750689744645691116.gif&lt;/a&gt;\n &lt;a href=&quot;\nhttp://www.hipinpakistan.com/wp-content/uploads/2014/07/khoob.jpg.jpg&quot; rel=&quot;nofollow&quot; target=&quot;_NEW&quot;&gt;\nhttp://www.hipinpakistan.com/wp-content/uploads/2014/07/khoob.jpg.jpg&lt;/a&gt;\n\nScreenshots:-\n &lt;a href=&quot;\nhttp://torrents.greatpalash.cloud.sn/data/Khoobsurat%20(2014)%20Hindi%20Movie%201CD%20DvDScr%20x264%20%5bDTRC%5d%20%7bGreatPalash%7d/screens_Khoobsurat%20(2014)%20Hindi%20Movie%201CD%20DvDScr%20x264%20%5bDTRC%5d%20%7bGreatPalash%7d.png&quot; rel=&quot;nofollow&quot; target=&quot;_NEW&quot;&gt;\nhttp://torrents.greatpalash.cloud.sn/data/Khoobsurat%20(2014)%20Hindi%20Movie%201CD%20DvDScr%20x264%20%5bDTRC%5d%20%7bGreatPalash%7d/screens_Khoobsurat%20(2014)%20Hindi%20Movie%201CD%20DvDScr%20x264%20%5bDTRC%5d%20%7bGreatPalash%7d.png&lt;/a&gt;\n\nMedia Info:-\n\nGeneral\nUnique ID                                : 233684426218438446834957377048702632533 (0xAFCDFBC00B2EB70BB71FFBE12C904255)\nComplete name                            : Khoobsurat (2014) Hindi Movie 1CD DvDScr x264 [DTRC] {GreatPalash}.mkv\nFormat                                   : Matroska\nFormat version                           : Version 2\nFile size                                : 704 MiB\nDuration                                 : 2h 6mn\nOverall bit rate                         : 777 Kbps\n\nVideo\nID                                       : 1\nFormat                                   : AVC\nFormat/Info                              : Advanced Video Codec\nFormat profile                           : &lt;a class=&quot;__cf_email__&quot; href=&quot;/cdn-cgi/l/email-protection&quot; data-cfemail=&quot;efa7868887afa3ddc1de&quot;&gt;[email&amp;#160;protected]&lt;/a&gt;&lt;script data-cfhash='f9e31' type=&quot;text/javascript&quot;&gt;\n/* &lt;![CDATA[ */!function(){try{var t=&quot;currentScript&quot;in document?document.currentScript:function(){for(var t=document.getElementsByTagName(&quot;script&quot;),e=t.length;e--;)if(t[e].getAttribute(&quot;data-cfhash&quot;))return t[e]}();if(t&amp;&amp;t.previousSibling){var e,r,n,i,c=t.previousSibling,a=c.getAttribute(&quot;data-cfemail&quot;);if(a){for(e=&quot;&quot;,r=parseInt(a.substr(0,2),16),n=2;a.length-n;n+=2)i=parseInt(a.substr(n,2),16)^r,e+=String.fromCharCode(i);e=document.createTextNode(e),c.parentNode.replaceChild(e,c)}t.parentNode.removeChild(t);}}catch(u){}}()/* ]]&gt; */&lt;/script&gt;\nFormat settings, CABAC                   : Yes\nFormat settings, ReFrames                : 4 frames\nCodec ID                                 : V_MPEG4/ISO/AVC\nDuration                                 : 2h 6mn\nBit rate                                 : 704 Kbps\nWidth                                    : 640 pixels\nHeight                                   : 272 pixels\nDisplay aspect ratio                     : 2.35:1\nFrame rate mode                          : Constant\nFrame rate                               : 25.000 fps\nColor space                              : YUV\nChroma subsampling                       : 4:2:0\nBit depth                                : 8 bits\nScan type                                : Progressive\nBits/(Pixel*Frame)                       : 0.162\nStream size                              : 632 MiB (90%)\nWriting library                          : x264 core 142 r2431 ac76440\nDefault                                  : Yes\nForced                                   : No\n\nAudio\nID                                       : 2\nFormat                                   : AC-3\nFormat/Info                              : Audio Coding 3\nMode extension                           : CM (complete main)\nFormat settings, Endianness              : Big\nCodec ID                                 : A_AC3\nDuration                                 : 2h 6mn\nBit rate mode                            : Constant\nBit rate                                 : 64.0 Kbps\nChannel(s)                               : 2 channels\nChannel positions                        : Front: L R\nSampling rate                            : 48.0 KHz\nBit depth                                : 16 bits\nCompression mode                         : Lossy\nStream size                              : 58.0 MiB (8%)\nDefault                                  : Yes\nForced                                   : No","torrent":{"xt":"urn:btih:347e26f8e45c2b39f5a78faefad65a5515613548","amp;dn":"Khoobsurat+%282014%29+Hindi+DvDScr+x264+%5BDTRC%5D+%7BGreatPalash%7D","amp;tr":["udp%3A%2F%2Ftracker.openbittorrent.com%3A80","udp%3A%2F%2Fopen.demonii.com%3A1337","udp%3A%2F%2Ftracker.coppersurfer.tk%3A6969","udp%3A%2F%2Fexodus.desync.com%3A6969"],"infoHash":"347e26f8e45c2b39f5a78faefad65a5515613548","infoHashBuffer":{"type":"Buffer","data":[52,126,38,248,228,92,43,57,245,167,143,174,250,214,90,85,21,97,53,72]},"announce":[],"urlList":[]}}